 <svg  version="1.0" xmlns="http://www.w3.org/2000/svg"  width="300.000000pt" height="180.000000pt" viewBox="0 0 300.000000 180.000000"  preserveAspectRatio="xMidYMid meet">  <g transform="translate(0.000000,180.000000) scale(0.050000,-0.050000)" fill="#8cc9f0" stroke="none"> <path d="M1767 3221 c-95 -43 -140 -101 -189 -247 l-34 -100 -45 87 c-36 72 -41 98 -23 143 23 63 -4 76 -35 17 -32 -59 -26 -110 29 -233 90 -204 53 -311 -138 -400 -219 -102 -470 16 -473 222 0 52 -3 55 -22 23 -11 -20 -17 -58 -12 -85 5 -26 2 -48 -6 -48 -36 0 -105 129 -114 211 -12 109 -45 97 -45 -16 0 -97 64 -239 132 -293 66 -52 61 -62 -33 -62 -60 0 -94 13 -132 51 -61 62 -85 50 -40 -19 35 -53 140 -92 250 -92 166 0 254 -102 252 -290 -2 -237 -280 -434 -447 -317 -33 23 -45 25 -39 7 5 -15 38 -42 73 -61 50 -27 58 -37 33 -47 -57 -22 -178 -13 -236 18 -99 52 -105 21 -8 -43 86 -56 196 -74 297 -47 45 13 87 18 92 12 25 -25 -81 -153 -141 -170 l-63 -18 68 -2 c54 -2 80 12 130 70 167 194 207 228 268 228 307 0 493 -443 253 -601 -35 -23 -46 -39 -28 -39 16 0 51 14 76 32 60 42 74 24 43 -52 -24 -59 -111 -147 -164 -165 -14 -5 -20 -16 -13 -24 51 -55 245 125 282 261 13 49 30 88 39 88 34 0 80 -128 69 -195 -10 -60 -7 -65 20 -43 41 35 27 157 -34 294 -76 170 18 358 132 263 48 -40 122 -7 136 61 31 155 361 1 361 -169 0 -38 7 -64 16 -59 9 6 16 43 16 83 l0 72 48 -45 c50 -47 97 -187 78 -234 -6 -16 0 -28 12 -28 76 0 14 265 -89 379 l-74 81 81 0 c59 0 99 -15 145 -54 52 -44 62 -47 56 -17 -12 63 -103 112 -228 125 -214 21 -289 95 -289 286 0 246 267 447 436 329 25 -18 44 -22 44 -10 0 12 -27 38 -60 58 -33 20 -54 42 -47 50 24 24 196 12 247 -17 66 -38 91 -37 59 1 -66 80 -220 118 -353 88 -50 -11 -95 -17 -99 -13 -21 22 93 147 154 168 l69 24 -77 1 c-63 1 -87 -11 -130 -62 -214 -255 -258 -274 -423 -190 -216 110 -286 392 -132 525 87 75 53 96 -38 24 l-56 -44 14 59 c19 76 101 183 152 199 22 7 40 21 40 31 0 24 5 25 -93 -20z m-72 -966 c172 -183 24 -514 -190 -424 -153 64 -170 329 -28 444 51 42 171 31 218 -20z"/> <path d="M4330 1683 c-62 -14 -94 -87 -55 -126 29 -29 281 3 294 37 34 88 -66 125 -239 89z"/> <path d="M4633 1647 c-50 -50 -9 -103 111 -144 132 -45 176 -35 176 40 0 65 -239 151 -287 104z"/> <path d="M4015 1561 c-97 -61 -114 -94 -71 -137 57 -57 284 62 272 142 -9 67 -90 66 -201 -5z"/> <path d="M4964 1496 c-34 -34 -30 -70 12 -100 70 -50 68 -74 -9 -110 -74 -36 -126 -132 -85 -157 10 -6 18 1 18 16 0 15 14 45 30 66 29 37 30 36 20 -21 -10 -54 -9 -56 14 -23 88 128 149 174 183 136 40 -44 42 -71 5 -101 -31 -26 -55 -122 -31 -122 9 0 26 25 38 55 23 59 23 61 -12 -98 -11 -53 60 -157 88 -128 7 6 2 22 -11 35 -43 43 -30 101 16 76 24 -13 40 -14 40 -2 0 10 -11 22 -25 27 -17 6 -23 46 -19 130 5 104 0 129 -36 165 -24 24 -38 49 -32 55 19 19 213 -79 246 -124 30 -41 30 -41 20 4 -6 28 -1 45 14 45 13 0 42 14 63 30 36 29 34 30 -36 18 -58 -10 -100 -1 -180 37 -261 123 -290 132 -331 91z"/> <path d="M1884 1456 c-32 -32 -30 -86 7 -157 55 -108 164 -51 125 66 -32 98 -87 136 -132 91z"/> <path d="M3778 1365 c-119 -132 -122 -139 -99 -183 35 -66 84 -50 176 57 97 112 95 108 54 150 -45 44 -74 39 -131 -24z"/> <path d="M1979 1188 c-53 -63 109 -286 181 -248 55 29 51 62 -22 180 -64 104 -112 125 -159 68z"/> <path d="M3503 1050 c-90 -97 -95 -110 -59 -146 49 -49 256 90 256 172 0 90 -103 77 -197 -26z"/> <path d="M2215 918 c-76 -44 94 -282 178 -250 17 7 34 12 39 12 4 0 8 21 8 47 0 38 -154 216 -185 212 -3 0 -21 -9 -40 -21z"/> <path d="M3244 815 c-96 -71 -113 -159 -33 -171 63 -9 233 129 225 183 -10 68 -92 63 -192 -12z"/> <path d="M2491 694 c-79 -58 61 -174 210 -174 109 0 92 111 -22 151 -138 47 -152 49 -188 23z"/> <path d="M2950 672 c-200 -56 -183 -173 22 -143 114 17 178 75 148 131 -24 44 -51 46 -170 12z"/> </g> </svg> 